# xmcd
#
# Track frame offsets: 
#        150
#        17242
#        39495
#        52456
#        88668
#        108808
#        129170
#        150976
#        177758
#        211150
#        242594
#        260500
#        288109
#
# Disc length: 4331 seconds
#
# Revision: 0
# Processed by: cddbd v1.5.1PL0 Copyright (c) Steve Scherf et al.
# Submitted via: ExactAudioCopy v0.95a5
#
DISCID=a510e90d
DTITLE=The Dave Thomas Blues Band - Black Dog Boogie
DYEAR=1900
DGENRE=Blues
TTITLE0=It must have been the devil
TTITLE1=Talk to me baby
TTITLE2=I wanna be loved
TTITLE3=It's my own fault
TTITLE4=Black dog boogie
TTITLE5=Mr Jellly Roll Baker
TTITLE6=Sassy Mae
TTITLE7=Somebody's Acting Like a Child
TTITLE8=That's Alright
TTITLE9=Direct South
TTITLE10=Nobody loves me but my mother
TTITLE11=(My baby's been) hidding out
TTITLE12=Hold that train conductor
EXTD=
EXTT0=
EXTT1=
EXTT2=
EXTT3=
EXTT4=
EXTT5=
EXTT6=
EXTT7=
EXTT8=
EXTT9=
EXTT10=
EXTT11=
EXTT12=
PLAYORDER=
